<svg id="delete_icon" data-name="delete icon" xmlns="http://www.w3.org/2000/svg" width="30" height="32.999" viewBox="0 0 30 32.999">
  <path id="Union_3" data-name="Union 3" d="M4710.5,84a4.5,4.5,0,0,1-4.5-4.5V60h-1.5a1.5,1.5,0,0,1,0-3h6V55.5A4.5,4.5,0,0,1,4715,51h6a4.505,4.505,0,0,1,4.5,4.5V57h6a1.5,1.5,0,1,1,0,3H4730V79.5a4.5,4.5,0,0,1-4.5,4.5Zm-1.5-4.5a1.5,1.5,0,0,0,1.5,1.5h15a1.5,1.5,0,0,0,1.5-1.5V60h-18ZM4722.5,57V55.5A1.5,1.5,0,0,0,4721,54h-6a1.5,1.5,0,0,0-1.5,1.5V57Zm-3,18V66a1.5,1.5,0,0,1,3,0v9a1.5,1.5,0,0,1-3,0Zm-6,0V66a1.5,1.5,0,1,1,3,0v9a1.5,1.5,0,0,1-3,0Z" transform="translate(-4703 -51)"/>
</svg>
