<svg id="Icon_feather-edit" data-name="Icon feather-edit" xmlns="http://www.w3.org/2000/svg" width="20.4" height="20.4" viewBox="0 0 20.4 20.4">
  <path id="Union_2" data-name="Union 2" d="M2.767,20.4A2.77,2.77,0,0,1,0,17.634V4.723A2.77,2.77,0,0,1,2.767,1.956H9.222a.922.922,0,1,1,0,1.844H2.767a.923.923,0,0,0-.922.922v12.91a.923.923,0,0,0,.922.922H15.678a.923.923,0,0,0,.922-.922V11.178a.922.922,0,0,1,1.845,0v6.456A2.77,2.77,0,0,1,15.678,20.4ZM5.8,14.6a.923.923,0,0,1-.243-.876l.922-3.688A.921.921,0,0,1,6.726,9.6L15.487.843A2.878,2.878,0,0,1,20.4,2.878a2.859,2.859,0,0,1-.843,2.036L10.8,13.675a.925.925,0,0,1-.428.243l-3.689.922A.921.921,0,0,1,5.8,14.6ZM16.79,2.147l-8.58,8.58-.488,1.95,1.95-.487,8.58-8.58A1.034,1.034,0,0,0,16.79,2.147Z" transform="translate(0)" fill="#578fa5"/>
</svg>
