<svg xmlns="http://www.w3.org/2000/svg" width="427.069" height="189.297" viewBox="0 0 427.069 189.297">
  <g id="Group_28" data-name="Group 28" transform="translate(0 -27.851)">
    <path id="Subtraction_18" data-name="Subtraction 18" d="M43.074,0c-4.129,0-7.55.789-9.894,2.283C31.9,3.1,30.681,3.746,29.5,4.371,23.56,7.532,18.867,10.028,15.829,28.987a58.314,58.314,0,0,0-.518,15.059A47.564,47.564,0,0,0,17.718,55.03a32.544,32.544,0,0,0,4.616,9.008,24.265,24.265,0,0,0,3.322,2.951c1.824,1.345,4.588,2.949,7.4,2.949a7.546,7.546,0,0,0,6.218-3.514c.129-.176.281-.376.412-.549a19.889,19.889,0,0,0,2.746-4.532,11.392,11.392,0,0,0,.562-7.082c-.818-3.41-2.816-7.308-4.579-10.747l0-.009,0,0c-2.117-4.13-3.945-7.7-3.566-9.765.229-1.246,1.662-1.878,4.259-1.878A37.828,37.828,0,0,1,48.7,33.5c3.079.884,5.606,1.922,6.008,2.467,1.536,2.078,3.169,8.183,4.263,15.931a111.615,111.615,0,0,1,.866,24.574c-.246,2.672-.458,5.236-.645,7.5v.006c-.625,7.573-1.119,13.555-2.332,18.353a22.605,22.605,0,0,1-2.456,6.229,13.18,13.18,0,0,1-4.136,4.321,5.561,5.561,0,0,1-3.057.983c-1.661,0-3.347-.807-5.307-2.539a52.578,52.578,0,0,1-5.171-5.658c-2.82-3.385-5.736-6.884-8.915-8.3a12.025,12.025,0,0,0-4.88-1.139,9.586,9.586,0,0,0-6.593,2.729,19.733,19.733,0,0,0-3.352,4.26c-.135.218-.238.382-.328.517a75.976,75.976,0,0,0-7.922,16.15L44.808,139l39.449-15.813a93.141,93.141,0,0,0-2.439-9.452l0-.013A108.374,108.374,0,0,1,77.461,93.67c-1.1-9.711.191-17.973,1.557-26.72A153.338,153.338,0,0,0,81.14,48a115.269,115.269,0,0,0-.454-17.367,23.1,23.1,0,0,0-.892-4.672,24.177,24.177,0,0,0-1.038-5.775,22.926,22.926,0,0,0-2.289-5.213,18.387,18.387,0,0,0-4.35-4.98,40.478,40.478,0,0,0-6.412-4.082,53.883,53.883,0,0,0-7.427-3.155A48.839,48.839,0,0,0,43.074,0ZM72.749,41.027c-4.228,0-10.479-4.212-15.554-10.479A34.925,34.925,0,0,1,50.61,18.6c-1.054-3.763-.7-6.594,1.006-7.972a4.282,4.282,0,0,1,2.771-.881c4.229,0,10.48,4.212,15.554,10.479a34.93,34.93,0,0,1,6.585,11.949c1.054,3.763.7,6.594-1.007,7.972A4.278,4.278,0,0,1,72.749,41.027ZM30.214,58.587c-.024,0-.049,0-.074,0-.546-.045-1.256-.586-2.051-1.562a34.935,34.935,0,0,1-5.134-10.565,43.034,43.034,0,0,1-1.632-7.137,28.084,28.084,0,0,1-.137-7.13,36.4,36.4,0,0,1,5.7-14.9c2.469-3.774,5.256-6.513,6.627-6.513a.655.655,0,0,1,.551.244c.593.751.025,3.135-.835,6.743a88.215,88.215,0,0,0-2.5,14.422,113.432,113.432,0,0,0,.358,15.471c.374,5.377.669,9.623-.313,10.675A.745.745,0,0,1,30.214,58.587ZM2.852,125.846v0h0A74.781,74.781,0,0,0,.089,143.126c3.363,1.052,8.388,2.59,13.233,3.95,8.673,2.433,17.029,4.366,17.954,4.579l.029.007,2.121.483v25.29l-2.9-.441a87.594,87.594,0,0,1-16.268-4.661c-3.789-1.424-8.54-3.424-14.12-5.945a91.353,91.353,0,0,0,1.413,13.938,98.244,98.244,0,0,0,28.31,7.647,144.548,144.548,0,0,0,16.135.8,292.171,292.171,0,0,0,30.026-1.757,107.579,107.579,0,0,0,7.644-21.491,135.068,135.068,0,0,1-14.237,6.791,68.559,68.559,0,0,1-19.112,4.694l-2.5.152L46.5,157.889l.388-3.456h2.816c1.718,0,8.1-.325,18.1-4.513,4.879-2.043,11.014-4.947,18.236-8.633-.133-1.759-.305-3.556-.488-5.458l0-.025V135.8l-.008-.087c-.185-1.921-.375-3.908-.548-6.089l-40.339,16.17ZM86.3,148.083h0c-6.6,3.332-12.259,5.992-16.828,7.905A59.05,59.05,0,0,1,51.891,160.7l.654,9.626a70.558,70.558,0,0,0,15.307-4.112,150.865,150.865,0,0,0,17.563-8.681,58.4,58.4,0,0,0,.883-9.449ZM.043,149.718v0h0q-.007.872-.013,1.739v.1C.01,154.306-.008,156.9,0,159.5c4.326,1.982,10.57,4.752,15.754,6.7a100.406,100.406,0,0,0,12.488,3.839V157.466c-3.17-.753-9.472-2.292-16.069-4.142C8.591,152.318,4.509,151.1.043,149.718Zm3.572,38.259v0A38.124,38.124,0,0,0,5.193,191.7a39.562,39.562,0,0,0,6.019,8.908,41.074,41.074,0,0,0,7.961,6.9,37.814,37.814,0,0,0,9.142,4.454,30.844,30.844,0,0,0,9.556,1.581,41.9,41.9,0,0,0,8.909-.927,36.541,36.541,0,0,0,8.911-3.186,38.482,38.482,0,0,0,8.571-6.053,50.254,50.254,0,0,0,7.89-9.527c-6.447.611-16.217,1.342-26.161,1.342a148.769,148.769,0,0,1-16.61-.831,103.818,103.818,0,0,1-14.468-2.705,101.709,101.709,0,0,1-11.3-3.669Z" transform="translate(0 114.149) rotate(-90)" fill="#f16d4f"/>
    <path id="Subtraction_18-2" data-name="Subtraction 18" d="M43.074,213.535c-4.129,0-7.55-.789-9.894-2.283-1.282-.817-2.5-1.463-3.675-2.088C23.56,206,18.867,203.507,15.829,184.548a58.314,58.314,0,0,1-.518-15.059A47.564,47.564,0,0,1,17.718,158.5a32.544,32.544,0,0,1,4.616-9.008,24.265,24.265,0,0,1,3.322-2.951c1.824-1.345,4.588-2.949,7.4-2.949a7.546,7.546,0,0,1,6.218,3.514c.129.176.281.376.412.549a19.889,19.889,0,0,1,2.746,4.532,11.392,11.392,0,0,1,.562,7.082c-.818,3.41-2.816,7.308-4.579,10.747l0,.009,0,0c-2.117,4.13-3.945,7.7-3.566,9.765.229,1.246,1.662,1.878,4.259,1.878a37.829,37.829,0,0,0,9.6-1.642c3.079-.884,5.606-1.922,6.008-2.467,1.536-2.078,3.169-8.183,4.263-15.931a111.615,111.615,0,0,0,.866-24.574c-.246-2.672-.458-5.236-.645-7.5v-.006C58.567,121.984,58.073,116,56.86,111.2a22.605,22.605,0,0,0-2.456-6.229,13.18,13.18,0,0,0-4.136-4.321,5.561,5.561,0,0,0-3.057-.983c-1.661,0-3.347.807-5.307,2.539a52.578,52.578,0,0,0-5.171,5.658c-2.82,3.385-5.736,6.884-8.915,8.3a12.025,12.025,0,0,1-4.88,1.139,9.586,9.586,0,0,1-6.593-2.729,19.733,19.733,0,0,1-3.352-4.26c-.135-.218-.238-.382-.328-.517a75.976,75.976,0,0,1-7.922-16.15L44.808,74.539,84.257,90.352A93.141,93.141,0,0,1,81.819,99.8l0,.013a108.374,108.374,0,0,0-4.353,20.048c-1.1,9.711.191,17.973,1.557,26.72a153.338,153.338,0,0,1,2.122,18.95,115.269,115.269,0,0,1-.454,17.367,23.1,23.1,0,0,1-.892,4.672,24.177,24.177,0,0,1-1.038,5.775,22.927,22.927,0,0,1-2.289,5.213,18.387,18.387,0,0,1-4.35,4.98,40.479,40.479,0,0,1-6.412,4.082,53.883,53.883,0,0,1-7.427,3.155A48.838,48.838,0,0,1,43.074,213.535Zm29.675-41.027c-4.228,0-10.479,4.212-15.554,10.479a34.925,34.925,0,0,0-6.585,11.948c-1.054,3.763-.7,6.594,1.006,7.972a4.282,4.282,0,0,0,2.771.881c4.229,0,10.48-4.212,15.554-10.479a34.93,34.93,0,0,0,6.585-11.949c1.054-3.763.7-6.594-1.007-7.972A4.278,4.278,0,0,0,72.749,172.507Zm-42.535-17.56c-.024,0-.049,0-.074,0-.546.045-1.256.586-2.051,1.562a34.935,34.935,0,0,0-5.134,10.565,43.034,43.034,0,0,0-1.632,7.137,28.084,28.084,0,0,0-.137,7.13,36.4,36.4,0,0,0,5.7,14.9c2.469,3.774,5.256,6.513,6.627,6.513a.655.655,0,0,0,.551-.244c.593-.751.025-3.135-.835-6.743a88.215,88.215,0,0,1-2.5-14.422,113.432,113.432,0,0,1,.358-15.471c.374-5.377.669-9.623-.313-10.675A.745.745,0,0,0,30.214,154.948ZM2.852,87.688v0h0A74.781,74.781,0,0,1,.089,70.409c3.363-1.052,8.388-2.59,13.233-3.95,8.673-2.433,17.029-4.366,17.954-4.579l.029-.007,2.121-.483V36.1l-2.9.441A87.594,87.594,0,0,0,14.253,41.2c-3.789,1.424-8.54,3.424-14.12,5.945A91.353,91.353,0,0,1,1.546,33.209a98.244,98.244,0,0,1,28.31-7.647,144.548,144.548,0,0,1,16.135-.8,292.171,292.171,0,0,1,30.026,1.757,107.579,107.579,0,0,1,7.644,21.491,135.068,135.068,0,0,0-14.237-6.791,68.559,68.559,0,0,0-19.112-4.694l-2.5-.152L46.5,55.646,46.89,59.1h2.816c1.718,0,8.1.325,18.1,4.513,4.879,2.043,11.014,4.947,18.236,8.633-.133,1.759-.305,3.556-.488,5.458l0,.025v.006l-.008.087c-.185,1.921-.375,3.908-.548,6.089L44.657,67.743ZM86.3,65.452h0c-6.6-3.332-12.259-5.992-16.828-7.905a59.05,59.05,0,0,0-17.577-4.712l.654-9.626a70.558,70.558,0,0,1,15.307,4.112A150.865,150.865,0,0,1,85.415,56a58.4,58.4,0,0,1,.883,9.449ZM.043,63.817v0h0Q.036,62.943.03,62.076v-.1C.01,59.229-.008,56.638,0,54.033c4.326-1.982,10.57-4.752,15.754-6.7a100.406,100.406,0,0,1,12.488-3.839V56.069c-3.17.753-9.472,2.292-16.069,4.142C8.591,61.217,4.509,62.43.043,63.817ZM3.615,25.558v0a38.124,38.124,0,0,1,1.578-3.717,39.562,39.562,0,0,1,6.019-8.908,41.074,41.074,0,0,1,7.961-6.9,37.814,37.814,0,0,1,9.142-4.454A30.844,30.844,0,0,1,37.871,0,41.9,41.9,0,0,1,46.78.927a36.541,36.541,0,0,1,8.911,3.186,38.482,38.482,0,0,1,8.571,6.053,50.254,50.254,0,0,1,7.89,9.527c-6.447-.611-16.217-1.342-26.161-1.342a148.769,148.769,0,0,0-16.61.831,103.818,103.818,0,0,0-14.468,2.705,101.709,101.709,0,0,0-11.3,3.669Z" transform="translate(427.069 130.851) rotate(90)" fill="#f16d4f"/>
  </g>
</svg>
