<svg xmlns="http://www.w3.org/2000/svg" width="213.535" height="100" viewBox="0 0 213.535 100">
  <g id="Group_26" data-name="Group 26" transform="translate(-113.465 -3747.649)">
    <path id="Subtraction_33" data-name="Subtraction 33" d="M24.957,0a10.818,10.818,0,0,0-5.733,1.323c-.743.473-1.448.848-2.129,1.21C13.651,4.364,10.931,5.81,9.171,16.795a33.787,33.787,0,0,0-.3,8.725,27.558,27.558,0,0,0,1.395,6.364A18.856,18.856,0,0,0,12.94,37.1a14.059,14.059,0,0,0,1.925,1.71,7.749,7.749,0,0,0,4.285,1.709,4.372,4.372,0,0,0,3.6-2.036c.075-.1.163-.218.239-.318a11.523,11.523,0,0,0,1.591-2.626,6.6,6.6,0,0,0,.326-4.1,30.794,30.794,0,0,0-2.653-6.227l0-.005v0c-1.227-2.393-2.286-4.46-2.066-5.658.133-.722.963-1.088,2.468-1.088a21.917,21.917,0,0,1,5.564.952A10.63,10.63,0,0,1,31.7,20.839c.89,1.2,1.836,4.741,2.47,9.23a64.669,64.669,0,0,1,.5,14.238c-.143,1.548-.266,3.034-.374,4.345v0a70.138,70.138,0,0,1-1.351,10.634A13.1,13.1,0,0,1,31.521,62.9a7.636,7.636,0,0,1-2.4,2.5,3.222,3.222,0,0,1-1.771.569A4.745,4.745,0,0,1,24.278,64.5a30.463,30.463,0,0,1-3-3.278c-1.634-1.961-3.324-3.988-5.165-4.81a6.967,6.967,0,0,0-2.827-.66,5.554,5.554,0,0,0-3.82,1.581A11.433,11.433,0,0,0,7.527,59.8c-.078.126-.138.221-.19.3a44.02,44.02,0,0,0-4.59,9.357L25.961,80.533l22.857-9.162A53.967,53.967,0,0,0,47.4,65.895l0-.008A62.791,62.791,0,0,1,44.88,54.271c-.637-5.627.11-10.414.9-15.482a88.843,88.843,0,0,0,1.229-10.979,66.786,66.786,0,0,0-.263-10.062,13.383,13.383,0,0,0-.517-2.707,14.008,14.008,0,0,0-.6-3.346A13.283,13.283,0,0,0,44.3,8.675a10.653,10.653,0,0,0-2.52-2.885,23.453,23.453,0,0,0-3.715-2.365,31.219,31.219,0,0,0-4.3-1.828A28.3,28.3,0,0,0,24.957,0ZM42.15,23.771c-2.45,0-6.071-2.44-9.012-6.072a20.235,20.235,0,0,1-3.815-6.922c-.61-2.18-.4-3.82.583-4.619a2.481,2.481,0,0,1,1.606-.51c2.45,0,6.072,2.44,9.012,6.072a20.238,20.238,0,0,1,3.815,6.923c.611,2.18.4,3.82-.583,4.619A2.479,2.479,0,0,1,42.15,23.771ZM17.506,33.945l-.043,0c-.316-.026-.727-.339-1.189-.905A20.241,20.241,0,0,1,13.3,26.916a24.934,24.934,0,0,1-.945-4.135,16.272,16.272,0,0,1-.079-4.131,21.089,21.089,0,0,1,3.3-8.631c1.431-2.187,3.046-3.774,3.84-3.774a.38.38,0,0,1,.319.141c.344.435.014,1.816-.484,3.907a51.111,51.111,0,0,0-1.448,8.356,65.721,65.721,0,0,0,.207,8.964c.216,3.115.387,5.576-.181,6.185A.432.432,0,0,1,17.506,33.945ZM1.653,72.914h0a43.327,43.327,0,0,0-1.6,10.01c1.949.609,4.86,1.5,7.667,2.289,5.025,1.41,9.867,2.53,10.4,2.653l.017,0,1.229.28V102.8l-1.683-.255a50.752,50.752,0,0,1-9.425-2.7C6.063,99.023,3.31,97.864.077,96.4A52.929,52.929,0,0,0,.9,104.479a56.922,56.922,0,0,0,16.4,4.43,83.75,83.75,0,0,0,9.348.466,169.28,169.28,0,0,0,17.4-1.018,62.33,62.33,0,0,0,4.429-12.452,78.257,78.257,0,0,1-8.249,3.935A39.722,39.722,0,0,1,29.15,102.56l-1.448.088-.759-11.169.225-2H28.8c1,0,4.695-.189,10.487-2.615,2.827-1.183,6.382-2.866,10.566-5-.077-1.019-.177-2.06-.283-3.162V78.68l0-.05c-.107-1.113-.217-2.264-.317-3.528L25.874,84.47ZM50,85.8h0c-3.822,1.931-7.1,3.472-9.75,4.58a34.213,34.213,0,0,1-10.184,2.73l.379,5.577A40.881,40.881,0,0,0,39.313,96.3a87.41,87.41,0,0,0,10.176-5.03A33.835,33.835,0,0,0,50,85.8ZM.025,86.745h0q0,.505-.008,1.008v.06C.006,89.4,0,90.9,0,92.414,2.509,93.562,6.126,95.167,9.13,96.3a58.176,58.176,0,0,0,7.235,2.224V91.234c-1.837-.436-5.488-1.328-9.31-2.4C4.978,88.251,2.612,87.548.025,86.745Zm2.07,22.167h0a22.088,22.088,0,0,0,.914,2.154A22.922,22.922,0,0,0,6.5,116.227a23.8,23.8,0,0,0,4.613,4,21.909,21.909,0,0,0,5.3,2.581,17.871,17.871,0,0,0,5.536.916,24.278,24.278,0,0,0,5.162-.537,21.171,21.171,0,0,0,5.163-1.846,22.3,22.3,0,0,0,4.966-3.507,29.117,29.117,0,0,0,4.571-5.52c-3.735.354-9.4.777-15.158.777a86.2,86.2,0,0,1-9.624-.482,60.152,60.152,0,0,1-8.383-1.567A58.931,58.931,0,0,1,2.1,108.912Z" transform="translate(113.465 3797.649) rotate(-90)" fill="#f59c87"/>
    <path id="Subtraction_36" data-name="Subtraction 36" d="M24.957,123.72a10.818,10.818,0,0,1-5.733-1.323c-.743-.473-1.448-.848-2.129-1.21-3.444-1.832-6.163-3.278-7.924-14.263a33.787,33.787,0,0,1-.3-8.725,27.558,27.558,0,0,1,1.395-6.364,18.856,18.856,0,0,1,2.675-5.219,14.058,14.058,0,0,1,1.925-1.71A7.749,7.749,0,0,1,19.15,83.2a4.372,4.372,0,0,1,3.6,2.036c.075.1.163.218.239.318a11.524,11.524,0,0,1,1.591,2.626,6.6,6.6,0,0,1,.326,4.1,30.794,30.794,0,0,1-2.653,6.227l0,.005v0c-1.227,2.393-2.286,4.46-2.066,5.658.133.722.963,1.088,2.468,1.088a21.917,21.917,0,0,0,5.564-.952,10.63,10.63,0,0,0,3.481-1.429c.89-1.2,1.836-4.741,2.47-9.23a64.668,64.668,0,0,0,.5-14.238c-.143-1.548-.266-3.034-.374-4.345v0A70.138,70.138,0,0,0,32.944,64.43a13.1,13.1,0,0,0-1.423-3.609,7.636,7.636,0,0,0-2.4-2.5,3.222,3.222,0,0,0-1.771-.569,4.745,4.745,0,0,0-3.075,1.471,30.463,30.463,0,0,0-3,3.278c-1.634,1.961-3.324,3.988-5.165,4.81a6.967,6.967,0,0,1-2.827.66,5.554,5.554,0,0,1-3.82-1.581,11.433,11.433,0,0,1-1.942-2.468c-.078-.126-.138-.221-.19-.3a44.02,44.02,0,0,1-4.59-9.357L25.961,43.187l22.857,9.162A53.967,53.967,0,0,1,47.4,57.825l0,.008A62.791,62.791,0,0,0,44.88,69.448c-.637,5.627.11,10.414.9,15.482a88.843,88.843,0,0,1,1.229,10.979,66.786,66.786,0,0,1-.263,10.062,13.382,13.382,0,0,1-.517,2.707,14.007,14.007,0,0,1-.6,3.346,13.283,13.283,0,0,1-1.326,3.02,10.653,10.653,0,0,1-2.52,2.885,23.453,23.453,0,0,1-3.715,2.365,31.219,31.219,0,0,1-4.3,1.828A28.3,28.3,0,0,1,24.957,123.72ZM42.15,99.949c-2.45,0-6.071,2.44-9.012,6.072a20.235,20.235,0,0,0-3.815,6.922c-.61,2.18-.4,3.82.583,4.619a2.481,2.481,0,0,0,1.606.51c2.45,0,6.072-2.44,9.012-6.072a20.238,20.238,0,0,0,3.815-6.923c.611-2.18.4-3.82-.583-4.619A2.479,2.479,0,0,0,42.15,99.949ZM17.506,89.775l-.043,0c-.316.026-.727.339-1.189.905A20.241,20.241,0,0,0,13.3,96.8a24.934,24.934,0,0,0-.945,4.135,16.272,16.272,0,0,0-.079,4.131,21.089,21.089,0,0,0,3.3,8.631c1.431,2.187,3.046,3.774,3.84,3.774a.38.38,0,0,0,.319-.141c.344-.435.014-1.816-.484-3.907a51.111,51.111,0,0,1-1.448-8.356,65.721,65.721,0,0,1,.207-8.964c.216-3.115.387-5.576-.181-6.185A.432.432,0,0,0,17.506,89.775ZM1.653,50.806h0a43.327,43.327,0,0,1-1.6-10.01c1.949-.609,4.86-1.5,7.667-2.289,5.025-1.41,9.867-2.53,10.4-2.653l.017,0,1.229-.28V20.916l-1.683.255a50.753,50.753,0,0,0-9.425,2.7c-2.2.825-4.948,1.984-8.181,3.445A52.929,52.929,0,0,1,.9,19.241a56.922,56.922,0,0,1,16.4-4.43,83.752,83.752,0,0,1,9.348-.466,169.281,169.281,0,0,1,17.4,1.018,62.33,62.33,0,0,1,4.429,12.452,78.257,78.257,0,0,0-8.249-3.935A39.723,39.723,0,0,0,29.15,21.16L27.7,21.072,26.943,32.24l.225,2H28.8c1,0,4.695.189,10.487,2.615,2.827,1.183,6.382,2.866,10.566,5-.077,1.019-.177,2.06-.283,3.162v.018l0,.05c-.107,1.113-.217,2.264-.317,3.528L25.874,39.25ZM50,37.922h0c-3.822-1.931-7.1-3.472-9.75-4.58a34.213,34.213,0,0,0-10.184-2.73l.379-5.577a40.881,40.881,0,0,1,8.868,2.383,87.41,87.41,0,0,1,10.176,5.03A33.835,33.835,0,0,1,50,37.921ZM.025,36.975h0q0-.505-.008-1.008v-.06C.006,34.317,0,32.815,0,31.306c2.506-1.148,6.124-2.753,9.128-3.882A58.176,58.176,0,0,1,16.365,25.2v7.286c-1.837.436-5.488,1.328-9.31,2.4C4.978,35.468,2.612,36.171.025,36.975Zm2.07-22.167h0a22.089,22.089,0,0,1,.914-2.154A22.922,22.922,0,0,1,6.5,7.492a23.8,23.8,0,0,1,4.613-4,21.909,21.909,0,0,1,5.3-2.581A17.871,17.871,0,0,1,21.942,0,24.278,24.278,0,0,1,27.1.537a21.171,21.171,0,0,1,5.163,1.846A22.3,22.3,0,0,1,37.233,5.89,29.116,29.116,0,0,1,41.8,11.41c-3.735-.354-9.4-.777-15.158-.777a86.2,86.2,0,0,0-9.624.482A60.152,60.152,0,0,0,8.64,12.682,58.932,58.932,0,0,0,2.1,14.808Z" transform="translate(327 3797.649) rotate(90)" fill="#f59c87"/>
  </g>
</svg>
