<svg id="soleicon" xmlns="http://www.w3.org/2000/svg" width="85" height="34.352" viewBox="0 0 85 34.352">
  <path id="Subtraction_18" data-name="Subtraction 18" d="M17.146,0a7.432,7.432,0,0,0-3.939.909c-.51.325-.995.582-1.463.831C9.378,3,7.51,3.992,6.3,11.539a23.213,23.213,0,0,0-.206,5.994,18.934,18.934,0,0,0,.958,4.372A12.955,12.955,0,0,0,8.89,25.491a9.659,9.659,0,0,0,1.322,1.175,5.324,5.324,0,0,0,2.944,1.174,3,3,0,0,0,2.475-1.4c.051-.07.112-.15.164-.219a7.917,7.917,0,0,0,1.093-1.8,4.535,4.535,0,0,0,.224-2.819,21.157,21.157,0,0,0-1.823-4.278l0,0v0c-.843-1.644-1.571-3.064-1.419-3.887.091-.5.662-.748,1.7-.748a15.058,15.058,0,0,1,3.823.654,7.3,7.3,0,0,1,2.392.982c.611.827,1.261,3.257,1.7,6.342a44.429,44.429,0,0,1,.345,9.782c-.1,1.064-.182,2.084-.257,2.985v0a48.188,48.188,0,0,1-.928,7.306,9,9,0,0,1-.978,2.479,5.247,5.247,0,0,1-1.647,1.72,2.214,2.214,0,0,1-1.217.391,3.26,3.26,0,0,1-2.113-1.011,20.929,20.929,0,0,1-2.058-2.252,11.775,11.775,0,0,0-3.549-3.3A4.787,4.787,0,0,0,9.13,38.3,3.816,3.816,0,0,0,6.506,39.39a7.855,7.855,0,0,0-1.334,1.7c-.054.087-.095.152-.13.206A30.243,30.243,0,0,0,1.888,47.72l15.949,7.609,15.7-6.295a37.076,37.076,0,0,0-.971-3.762l0-.005a43.139,43.139,0,0,1-1.733-7.98,37.919,37.919,0,0,1,.62-10.636,61.038,61.038,0,0,0,.845-7.543,45.885,45.885,0,0,0-.181-6.913,9.2,9.2,0,0,0-.355-1.86,9.624,9.624,0,0,0-.413-2.3,9.126,9.126,0,0,0-.911-2.075,7.319,7.319,0,0,0-1.732-1.982,16.113,16.113,0,0,0-2.552-1.625A21.449,21.449,0,0,0,23.2,1.1,19.441,19.441,0,0,0,17.146,0ZM28.959,16.331c-1.683,0-4.171-1.677-6.192-4.171A13.9,13.9,0,0,1,20.146,7.4c-.419-1.5-.277-2.625.4-3.173a1.7,1.7,0,0,1,1.1-.351c1.683,0,4.172,1.677,6.191,4.171a13.9,13.9,0,0,1,2.621,4.756c.419,1.5.277,2.625-.4,3.173A1.7,1.7,0,0,1,28.959,16.331Zm-16.932,6.99H12c-.217-.018-.5-.233-.817-.622a13.906,13.906,0,0,1-2.043-4.206,17.13,17.13,0,0,1-.65-2.841,11.179,11.179,0,0,1-.054-2.838A14.489,14.489,0,0,1,10.7,6.884c.983-1.5,2.092-2.593,2.638-2.593a.261.261,0,0,1,.219.1c.236.3.01,1.248-.332,2.684a35.115,35.115,0,0,0-.995,5.741,45.153,45.153,0,0,0,.143,6.158c.149,2.14.266,3.831-.125,4.249A.3.3,0,0,1,12.027,23.321ZM1.135,50.095h0a29.767,29.767,0,0,0-1.1,6.878C1.374,57.392,3.375,58,5.3,58.545c3.452.968,6.779,1.738,7.147,1.823l.011,0,.844.192V70.63l-1.156-.175A34.868,34.868,0,0,1,5.674,68.6c-1.508-.567-3.4-1.363-5.621-2.367a36.364,36.364,0,0,0,.563,5.548,39.107,39.107,0,0,0,11.269,3.044,57.538,57.538,0,0,0,6.423.32,116.3,116.3,0,0,0,11.952-.7A42.823,42.823,0,0,0,33.3,65.891a53.765,53.765,0,0,1-5.667,2.7,27.291,27.291,0,0,1-7.608,1.868l-.995.061-.521-7.673.154-1.376h1.121a19.647,19.647,0,0,0,7.205-1.8c1.942-.813,4.384-1.969,7.259-3.437-.053-.7-.122-1.415-.194-2.173v-.012l0-.035c-.073-.765-.149-1.556-.218-2.424L17.776,58.034Zm33.216,8.851h0c-2.626,1.326-4.88,2.385-6.7,3.147a23.506,23.506,0,0,1-7,1.876l.26,3.832a28.087,28.087,0,0,0,6.093-1.637A60.054,60.054,0,0,0,34,62.708a23.246,23.246,0,0,0,.351-3.761ZM.017,59.6h0q0,.347-.005.692v.041C0,61.423,0,62.455,0,63.492c1.722.789,4.207,1.892,6.271,2.667a39.967,39.967,0,0,0,4.971,1.528V62.681c-1.262-.3-3.77-.912-6.4-1.649C3.42,60.632,1.795,60.149.017,59.6ZM1.439,74.826h0a15.175,15.175,0,0,0,.628,1.48,15.748,15.748,0,0,0,2.4,3.546A16.35,16.35,0,0,0,7.632,82.6a15.052,15.052,0,0,0,3.639,1.773,12.278,12.278,0,0,0,3.8.629,16.679,16.679,0,0,0,3.546-.369,14.546,14.546,0,0,0,3.547-1.268,15.318,15.318,0,0,0,3.412-2.41,20,20,0,0,0,3.141-3.792c-2.566.243-6.456.534-10.414.534a59.219,59.219,0,0,1-6.612-.331,41.326,41.326,0,0,1-5.759-1.077,40.487,40.487,0,0,1-4.5-1.461Z" transform="translate(0 34.352) rotate(-90)" fill="rgba(241,109,79,0.68)"/>
</svg>
