<svg xmlns="http://www.w3.org/2000/svg" width="30" height="30.844" viewBox="0 0 30 30.844">
  <g id="Group_27" data-name="Group 27" transform="translate(-245 -2012)">
    <path id="Ellipse_8_-_Outline" data-name="Ellipse 8 - Outline" d="M11.811,2.531A9.28,9.28,0,0,0,5.249,18.373,9.28,9.28,0,1,0,18.373,5.249a9.219,9.219,0,0,0-6.562-2.718m0-2.531A11.811,11.811,0,1,1,0,11.811,11.811,11.811,0,0,1,11.811,0Z" transform="translate(245 2012)"/>
    <path id="Line_1" data-name="Line 1" d="M9.907,11.7-1.061.729l1.79-1.79L11.7,9.907Z" transform="translate(263.304 2031.148)"/>
    <path id="Path_16" data-name="Path 16" d="M8.181-13.257v5.724h5.562v1.809H8.181V0H6.048V-5.724H.486V-7.533H6.048v-5.724Z" transform="translate(249.696 2030.439)"/>
  </g>
</svg>
